<svg width="770.6874mm" height="98.27808mm" version="1.1" viewBox="0 0 770.6874 98.27808" xmlns="http://www.w3.org/2000/svg"><g transform="translate(280.22 -99.53106)"><g transform="matrix(.826954 0 0 1.209257 262.7382 238.5181)" stroke-width=".638369" aria-label="EAN GENERATOR"><path fill="currentColor" d="m-459.5312-101.6992h45.37847v11.69972h-28.40827v8.709376h26.3524v11.17641h-26.3524v10.80262h29.23061v12.40993h-46.20081z"/><path fill="currentColor" d="m-370.4563-55.94695h-19.28772l-2.65393 9.04579h-17.30662l20.596-54.79805h18.46537l20.59599 54.79805h-17.71779zm-3.55104-11.84924-6.05544-19.69889-6.01807 19.69889z"/><path fill="currentColor" d="m-344.5525-101.6992h15.81145l20.63337 30.31461v-30.31461h15.96096v54.79805h-15.96096l-20.52124-30.09034v30.09034h-15.92358z"/><path fill="currentColor" d="m-227.7048-66.74957v-11.40069h26.16551v23.36206q-7.51324 5.120964-13.30703 6.989929-5.75642 1.831585-13.68083 1.831585-9.75599 0-15.92358-3.326757-6.1302-3.326758-9.53172-9.905514-3.36414-6.578757-3.36414-15.10124 0-8.971031 3.70056-15.58717 3.70055-6.653515 10.83999-10.09241 5.56952-2.653935 14.9891-2.653935 9.08317 0 13.56869 1.64469 4.52289 1.644693 7.47586 5.120968 2.99034 3.438895 4.48551 8.746756l-16.33475 2.915585q-1.00924-3.102482-3.4389-4.747171-2.39227-1.644689-6.1302-1.644689-5.56952 0-8.89628 3.887447-3.28937 3.850068-3.28937 12.22303 0 8.896273 3.32675 12.70896 3.36414 3.812688 9.34483 3.812688 2.84082 0 5.42-0.822344 2.57917-0.822345 5.90593-2.803447v-5.158344z"/><path fill="currentColor" d="m-191.4469-101.6992h45.37847v11.69972h-28.40827v8.709376h26.3524v11.17641h-26.3524v10.80262h29.23061v12.40993h-46.20081z"/><path fill="currentColor" d="m-135.976-101.6992h15.81144l20.63337 30.31461v-30.31461h15.96096v54.79805h-15.96096l-20.52123-30.09034v30.09034h-15.92358z"/><path fill="currentColor" d="m-72.28165-101.6992h45.37847v11.69972h-28.40827v8.709376h26.3524v11.17641h-26.3524v10.80262h29.23061v12.40993h-46.20081z"/><path fill="currentColor" d="m-16.69864-46.90116v-54.79805h28.22137q7.849653 0 11.99876 1.34565 4.149102 1.345657 6.690894 5.008828 2.541793 3.625792 2.541793 8.858894 0 4.560274-1.943724 7.887032-1.943723 3.289378-5.34524 5.345239-2.167999 1.308276-5.943308 2.168 3.027723 1.009241 4.410757 2.018482 0.934483 0.672827 2.69131 2.878206 1.794206 2.205378 2.392275 3.401516l8.186066 15.8862h-19.1382l-9.04579-16.74593q-1.719448-3.251999-3.065102-4.223861-1.831586-1.270896-4.149102-1.270896h-1.495172v22.24068zm17.00758-32.59475h7.139446q1.158758 0 4.485515-0.747586 1.682069-0.336414 2.728689-1.719448 1.084-1.383034 1.084-3.17724 0-2.653931-1.682069-4.074344-1.682068-1.420413-6.317101-1.420413h-7.43848z"/><path fill="currentColor" d="m76.30105-55.94695h-19.28772l-2.65393 9.04579h-17.30662l20.59599-54.79805h18.46537l20.59599 54.79805h-17.71779zm-3.551033-11.84924-6.055446-19.69889-6.018067 19.69889z"/><path fill="currentColor" d="m98.24267-101.6992h51.47129v13.5313h-17.26924v41.26675h-16.93282v-41.26675h-17.26923z"/><path fill="currentColor" d="m155.2835-74.26281q0-13.41917 7.47586-20.89503 7.47586-7.475865 20.82026-7.475865 13.68083 0 21.08193 7.363727 7.4011 7.326342 7.4011 20.55861 0 9.60648-3.252 15.77406-3.21462 6.130205-9.34482 9.5691-6.09283 3.401516-15.21338 3.401516-9.27006 0-15.36289-2.952964-6.05545-2.952965-9.83076-9.344825-3.7753-6.39186-3.7753-15.99834zm16.93282 0.07476q0 8.298204 3.0651 11.924 3.10248 3.625792 8.41034 3.625792 5.45738 0 8.44772-3.551033 2.99035-3.551034 2.99035-12.74634 0-7.737515-3.13986-11.28855-3.10249-3.588413-8.44772-3.588413-5.12097 0-8.22345 3.625792t-3.10248 11.99876z"/><path fill="currentColor" d="m221.4822-46.90116v-54.79805h28.22137q7.84966 0 11.99876 1.34565 4.1491 1.345657 6.69089 5.008828 2.54179 3.625792 2.54179 8.858894 0 4.560274-1.94372 7.887032-1.94372 3.289378-5.34524 5.345239-2.168 1.308276-5.94331 2.168 3.02773 1.009241 4.41076 2.018482 0.93448 0.672827 2.69131 2.878206 1.79421 2.205378 2.39227 3.401516l8.18607 15.8862h-19.1382l-9.04579-16.74593q-1.71945-3.251999-3.0651-4.223861-1.83159-1.270896-4.1491-1.270896h-1.49518v22.24068zm17.00758-32.59475h7.13945q1.15876 0 4.48552-0.747586 1.68206-0.336414 2.72868-1.719448 1.084-1.383034 1.084-3.17724 0-2.653931-1.68206-4.074344-1.68207-1.420413-6.31711-1.420413h-7.43848z"/></g><path fill="currentColor" d="m-269.373 99.53106c3.59309 0 6.50824 2.35823 6.50824 5.2649v87.74829c0 2.91763-2.91515 5.26489-6.50824 5.26489h-4.33883c-3.59309 0-6.50824-2.34726-6.50824-5.26489v-87.74829c0-2.90667 2.91515-5.2649 6.50824-5.2649zm23.86356 3.50993v91.25822c0 1.93046-1.95247 3.50993-4.33883 3.50993-2.38635 0-4.33882-1.57947-4.33882-3.50993v-91.25822c0-1.93924 1.95247-3.50993 4.33882-3.50993 2.38636 0 4.33883 1.57069 4.33883 3.50993zm19.52473-3.50993c3.60665 0 6.50824 2.35823 6.50824 5.2649v87.74829c0 2.91763-2.90159 5.26489-6.50824 5.26489h-4.33883c-3.60665 0-6.50824-2.34726-6.50824-5.26489v-87.74829c0-2.90667 2.90159-5.2649 6.50824-5.2649zm26.03298 0c3.60665 0 6.50824 2.35823 6.50824 5.2649v87.74829c0 2.91763-2.90159 5.26489-6.50824 5.26489h-4.33883c-3.60665 0-6.50824-2.34726-6.50824-5.26489v-87.74829c0-2.90667 2.90159-5.2649 6.50824-5.2649zm41.21888 5.2649c0-2.90667 2.90159-5.2649 6.50824-5.2649h4.33884c3.60664 0 6.50824 2.35823 6.50824 5.2649v87.74829c0 2.91763-2.9016 5.26489-6.50824 5.26489h-4.33884c-3.60665 0-6.50824-2.34726-6.50824-5.26489zm-17.35531-1.75497c0-1.93924 1.95247-3.50993 4.33882-3.50993 2.38636 0 4.33884 1.57069 4.33884 3.50993v91.25822c0 1.93046-1.95248 3.50993-4.33884 3.50993-2.38635 0-4.33882-1.57947-4.33882-3.50993z" stroke-width=".243902"/></g></svg>
